<?xml version="1.0" encoding="UTF-8" standalone="no"?>
<!-- Created with matplotlib (http://matplotlib.org/) -->

<svg
   xmlns:dc="http://purl.org/dc/elements/1.1/"
   xmlns:cc="http://creativecommons.org/ns#"
   xmlns:rdf="http://www.w3.org/1999/02/22-rdf-syntax-ns#"
   xmlns:svg="http://www.w3.org/2000/svg"
   xmlns="http://www.w3.org/2000/svg"
   xmlns:sodipodi="http://sodipodi.sourceforge.net/DTD/sodipodi-0.dtd"
   xmlns:inkscape="http://www.inkscape.org/namespaces/inkscape"
   height="345.6pt"
   version="1.1"
   viewBox="0 0 460.8 345.6"
   width="460.8pt"
   id="svg336"
   sodipodi:docname="logo.svg"
   inkscape:version="0.92.2 2405546, 2018-03-11">
  <metadata
     id="metadata340">
    <rdf:RDF>
      <cc:Work
         rdf:about="">
        <dc:format>image/svg+xml</dc:format>
        <dc:type
           rdf:resource="http://purl.org/dc/dcmitype/StillImage" />
      </cc:Work>
    </rdf:RDF>
  </metadata>
  <sodipodi:namedview
     pagecolor="#ffffff"
     bordercolor="#666666"
     borderopacity="1"
     objecttolerance="10"
     gridtolerance="10"
     guidetolerance="10"
     inkscape:pageopacity="0"
     inkscape:pageshadow="2"
     inkscape:window-width="1332"
     inkscape:window-height="912"
     id="namedview338"
     showgrid="false"
     inkscape:zoom="0.68770513"
     inkscape:cx="340.32546"
     inkscape:cy="197.48698"
     inkscape:window-x="1216"
     inkscape:window-y="269"
     inkscape:window-maximized="0"
     inkscape:current-layer="svg336" />
  <defs
     id="defs4">
    <style
       type="text/css"
       id="style2">
*{stroke-linecap:butt;stroke-linejoin:round;}
  </style>
    <clipPath
       id="p5fb191227f">
      <rect
         height="266.112"
         width="357.12"
         x="57.599998"
         y="41.472"
         id="rect204" />
    </clipPath>
    <clipPath
       id="p5fb191227f-4">
      <rect
         height="266.112"
         width="357.12"
         x="57.599998"
         y="41.472"
         id="rect204-9" />
    </clipPath>
    <clipPath
       id="pf1e85aacb6">
      <rect
         height="266.112"
         width="357.12"
         x="57.599998"
         y="41.472"
         id="rect210" />
    </clipPath>
  </defs>
  <defs
     id="defs334">
    <clipPath
       id="p57a272078e">
      <rect
         height="266.112"
         width="357.12"
         x="57.6"
         y="41.472"
         id="rect331" />
    </clipPath>
  </defs>
  <g
     id="g5738"
     transform="matrix(0.78192094,0,0,0.78192094,-7.3068977,75.096218)"
     style="stroke-linecap:butt;stroke-linejoin:round">
    <g
       style="fill:#000000;fill-opacity:0.19834708;stroke-linecap:butt;stroke-linejoin:round"
       id="patch_3-9"
       transform="matrix(1.5161469,0,0,1.5161469,-106.09981,-91.255288)">
      <path
         inkscape:connector-curvature="0"
         id="path12-1"
         style="opacity:0.5;fill:#000000;fill-opacity:0.19834708;stroke:#f2f2f2;stroke-linecap:butt;stroke-linejoin:miter"
         d="M 105.74682,248.35283 205.56125,176.80098 203.5896,55.751707 97.621697,121.98479" />
    </g>
    <g
       style="fill:#000000;fill-opacity:0.11294765;stroke-linecap:butt;stroke-linejoin:round"
       id="patch_4-5"
       transform="matrix(1.5161469,0,0,1.5161469,-106.09981,-91.255288)">
      <path
         inkscape:connector-curvature="0"
         id="path16-4"
         style="opacity:0.5;fill:#000000;fill-opacity:0.11294765;stroke:#e6e6e6;stroke-linecap:butt;stroke-linejoin:miter"
         d="M 205.56125,176.80098 371.91312,215.63276 379.51383,91.628222 203.5896,55.751707" />
    </g>
    <g
       style="stroke-linecap:butt;stroke-linejoin:round"
       id="patch_5-9"
       transform="matrix(1.5161469,0,0,1.5161469,-106.09981,-91.255288)">
      <path
         inkscape:connector-curvature="0"
         id="path20-2"
         style="opacity:0.5;fill:#ececec;stroke:#ececec;stroke-linecap:butt;stroke-linejoin:miter"
         d="m 105.74682,248.35283 174.98895,45.00792 91.17735,-77.72799 -166.35187,-38.83178" />
    </g>
    <g
       style="fill:none;fill-opacity:0.45179066;stroke:#000000;stroke-width:1.5;stroke-linecap:butt;stroke-linejoin:round;stroke-miterlimit:4;stroke-dasharray:none;stroke-opacity:1"
       id="patch_3">
      <path
         inkscape:connector-curvature="0"
         id="path12"
         style="opacity:0.5;fill:none;fill-opacity:0.45179066;stroke:#000000;stroke-width:1.5;stroke-linecap:butt;stroke-linejoin:miter;stroke-miterlimit:4;stroke-dasharray:none;stroke-opacity:1"
         d="M 105.74682,248.35283 205.56125,176.80098 203.5896,55.751707 97.621697,121.98479" />
    </g>
    <g
       style="fill:none;fill-opacity:0.2369146;stroke:#000000;stroke-linecap:butt;stroke-linejoin:round;stroke-opacity:1"
       id="patch_4">
      <path
         inkscape:connector-curvature="0"
         id="path16"
         style="opacity:0.5;fill:none;fill-opacity:0.2369146;stroke:#000000;stroke-linecap:butt;stroke-linejoin:miter;stroke-opacity:1"
         d="M 205.56125,176.80098 371.91312,215.63276 379.51383,91.628222 203.5896,55.751707" />
    </g>
    <g
       style="stroke:#000000;stroke-linecap:butt;stroke-linejoin:round;stroke-opacity:1"
       id="patch_5">
      <path
         inkscape:connector-curvature="0"
         id="path20"
         style="opacity:0.5;fill:#ececec;stroke:#000000;stroke-linecap:butt;stroke-linejoin:miter;stroke-opacity:1"
         d="m 105.74682,248.35283 174.98895,45.00792 91.17735,-77.72799 -166.35187,-38.83178" />
    </g>
    <g
       transform="rotate(-180,241.38249,177.08543)"
       style="stroke:#010507;stroke-linecap:butt;stroke-linejoin:round;stroke-opacity:1"
       id="Line3DCollection_4">
      <path
         inkscape:connector-curvature="0"
         id="path280"
         style="fill:none;stroke:#010507;stroke-width:1.5;stroke-linecap:butt;stroke-linejoin:round;stroke-opacity:1"
         d="m 117.30193,140.66438 14.02696,3.21987 14.1257,3.24376 14.22571,3.2747 14.32707,3.32005 14.42666,3.26575 14.52972,3.26049 14.6359,3.389 14.74077,3.43059 14.84658,3.41087 14.95405,3.43204 15.06269,3.45839"
         clip-path="url(#p57a272078e)" />
      <path
         inkscape:connector-curvature="0"
         id="path282"
         style="fill:none;stroke:#010507;stroke-width:1.5;stroke-linecap:butt;stroke-linejoin:round;stroke-opacity:1"
         d="m 126.09584,134.97607 13.97044,3.18033 14.06766,3.19111 14.16568,3.18831 14.26852,3.31008 14.37815,3.8144 14.4678,3.45983 14.56401,2.82198 14.67469,3.10996 14.78155,3.35029 14.88759,3.40941 14.99534,3.40687"
         clip-path="url(#p57a272078e)" />
      <path
         inkscape:connector-curvature="0"
         id="path284"
         style="fill:none;stroke:#010507;stroke-width:1.5;stroke-linecap:butt;stroke-linejoin:round;stroke-opacity:1"
         d="m 134.78151,129.35767 13.91416,3.13971 14.01191,3.19115 14.10736,3.14846 14.18264,2.11357 14.28656,1.52095 14.43554,4.22098 14.52757,5.13391 14.61242,3.35353 14.71626,3.32742 14.823,3.25506 14.92802,3.3851"
         clip-path="url(#p57a272078e)" />
      <path
         inkscape:connector-curvature="0"
         id="path286"
         style="fill:none;stroke:#010507;stroke-width:1.5;stroke-linecap:butt;stroke-linejoin:round;stroke-opacity:1"
         d="m 143.36091,123.80801 13.85828,3.10143 13.95402,3.12319 14.04379,2.86938 14.11295,1.18474 14.25364,2.5418 14.38322,6.17645 14.44657,4.46866 14.54937,2.11543 14.65252,3.21315 14.75775,3.22299 14.86189,3.3243"
         clip-path="url(#p57a272078e)" />
      <path
         inkscape:connector-curvature="0"
         id="path288"
         style="fill:none;stroke:#010507;stroke-width:1.5;stroke-linecap:butt;stroke-linejoin:round;stroke-opacity:1"
         d="m 151.83594,118.32459 13.80286,3.0673 13.88392,2.59394 13.91432,-0.73393 13.916,-10.26827 14.46773,22.46969 14.34302,33.45609 14.22847,-8.35987 14.56125,-15.9148 14.60142,2.06806 14.68599,3.49583 14.80354,2.98091"
         clip-path="url(#p57a272078e)" />
      <path
         inkscape:connector-curvature="0"
         id="path290"
         style="fill:none;stroke:#010507;stroke-width:1.5;stroke-linecap:butt;stroke-linejoin:round;stroke-opacity:1"
         d="m 160.20865,112.9105 13.74861,3.06363 13.80562,1.55943 13.85684,-1.94301 14.16861,11.58679 14.46709,73.56815 13.7339,23.22181 14.20823,-58.00696 14.67132,-28.18591 14.56628,1.23991 14.56582,5.90656 14.75468,2.38303"
         clip-path="url(#p57a272078e)" />
      <path
         inkscape:connector-curvature="0"
         id="path292"
         style="fill:none;stroke:#010507;stroke-width:1.5;stroke-linecap:butt;stroke-linejoin:round;stroke-opacity:1"
         d="m 168.48084,107.56332 13.69385,3.0394 13.76288,1.90493 13.90273,4.24907 14.28697,43.85977 13.89664,64.16264 13.66768,-27.20679 14.60329,-67.10553 14.42703,-1.00729 14.48633,2.88946 14.47459,6.65674 14.68381,2.60754"
         clip-path="url(#p57a272078e)" />
      <path
         inkscape:connector-curvature="0"
         id="path294"
         style="fill:none;stroke:#010507;stroke-width:1.5;stroke-linecap:butt;stroke-linejoin:round;stroke-opacity:1"
         d="m 176.65407,102.27544 13.6384,2.97221 13.72969,2.96694 13.86074,6.67446 14.00314,29.56273 13.80012,13.21427 14.17706,-35.39732 14.47357,-15.92793 14.0909,18.14561 14.38854,4.00852 14.46835,4.27424 14.59943,3.19269"
         clip-path="url(#p57a272078e)" />
      <path
         inkscape:connector-curvature="0"
         id="path296"
         style="fill:none;stroke:#010507;stroke-width:1.5;stroke-linecap:butt;stroke-linejoin:round;stroke-opacity:1"
         d="m 184.73026,97.048916 13.58378,2.920507 13.67599,3.033917 13.77121,3.70887 13.85601,5.68053 13.95032,-0.38982 14.12108,-3.19023 14.14469,5.09973 14.17333,6.82537 14.33263,3.31085 14.4384,3.06601 14.53436,3.1838"
         clip-path="url(#p57a272078e)" />
      <path
         inkscape:connector-curvature="0"
         id="path298"
         style="fill:none;stroke:#010507;stroke-width:1.5;stroke-linecap:butt;stroke-linejoin:round;stroke-opacity:1"
         d="m 192.7112,91.886158 13.52985,2.885892 13.62018,2.9292 13.71109,3.00697 13.8025,2.85094 13.90589,1.83206 14.00275,2.57735 14.07189,4.02409 14.16902,3.53216 14.27557,3.07728 14.37584,3.02492 14.47243,3.10131"
         clip-path="url(#p57a272078e)" />
      <path
         inkscape:connector-curvature="0"
         id="path300"
         style="fill:none;stroke:#010507;stroke-width:1.5;stroke-linecap:butt;stroke-linejoin:round;stroke-opacity:1"
         d="m 200.59852,86.784278 13.47625,2.852676 13.56546,2.870345 13.65558,2.891574 13.74631,2.951144 13.83738,2.998163 13.93129,2.91474 14.02648,2.89475 14.11996,2.98449 14.21556,3.00877 14.31206,3.03317 14.40989,3.04962"
         clip-path="url(#p57a272078e)" />
      <path
         inkscape:connector-curvature="0"
         id="path302"
         style="fill:none;stroke:#010507;stroke-width:1.5;stroke-linecap:butt;stroke-linejoin:round;stroke-opacity:1"
         d="m 208.39385,81.741894 13.42297,2.819398 13.51131,2.837956 13.60053,2.856406 13.69065,2.873465 13.78166,2.893873 13.87349,2.917177 13.96633,2.935021 14.06017,2.95206 14.15486,2.97306 14.25053,2.99313 14.34718,3.01352"
         clip-path="url(#p57a272078e)" />
      <path
         inkscape:connector-curvature="0"
         id="path304"
         style="fill:none;stroke:#010507;stroke-width:1.5;stroke-linecap:butt;stroke-linejoin:round;stroke-opacity:1"
         d="m 117.30193,140.66438 8.79391,-5.68831 8.68567,-5.6184 8.5794,-5.54966 8.47503,-5.48342 8.37271,-5.41409 8.27219,-5.34718 8.17323,-5.28788 8.07619,-5.226524 7.98094,-5.162758 7.88732,-5.10188 7.79533,-5.042384"
         clip-path="url(#p57a272078e)" />
      <path
         inkscape:connector-curvature="0"
         id="path306"
         style="fill:none;stroke:#010507;stroke-width:1.5;stroke-linecap:butt;stroke-linejoin:round;stroke-opacity:1"
         d="m 131.32889,143.88425 8.73739,-5.72785 8.62939,-5.65902 8.52352,-5.58794 8.41961,-5.51755 8.31846,-5.41776 8.21743,-5.37141 8.11778,-5.35507 8.02157,-5.278227 7.92701,-5.197373 7.83372,-5.135096 7.74205,-5.075662"
         clip-path="url(#p57a272078e)" />
      <path
         inkscape:connector-curvature="0"
         id="path308"
         style="fill:none;stroke:#010507;stroke-width:1.5;stroke-linecap:butt;stroke-linejoin:round;stroke-opacity:1"
         d="m 145.45459,147.12801 8.67935,-5.7805 8.57364,-5.65898 8.46563,-5.6559 8.34951,-6.0468 8.24016,-6.45227 8.17469,-5.02591 8.08459,-4.29306 7.96787,-5.21125 7.8712,-5.30209 7.779,-5.193951 7.6879,-5.108051"
         clip-path="url(#p57a272078e)" />
      <path
         inkscape:connector-curvature="0"
         id="path310"
         style="fill:none;stroke:#010507;stroke-width:1.5;stroke-linecap:butt;stroke-linejoin:round;stroke-opacity:1"
         d="m 159.6803,150.40271 8.61932,-5.86689 8.51532,-5.69883 8.40206,-5.93498 8.22004,-9.65011 8.18268,-7.66135 8.22058,1.16617 8.0426,-1.86767 7.87834,-8.17684 7.81108,-6.00399 7.72349,-5.309347 7.63285,-5.143219"
         clip-path="url(#p57a272078e)" />
      <path
         inkscape:connector-curvature="0"
         id="path312"
         style="fill:none;stroke:#010507;stroke-width:1.5;stroke-linecap:butt;stroke-linejoin:round;stroke-opacity:1"
         d="m 174.00737,153.72276 8.56077,-5.87686 8.42944,-6.89534 8.33237,-6.86381 8.02309,-21.10312 8.43529,14.19371 8.33894,33.43915 7.75877,-16.16471 7.73121,-32.05904 7.75757,-8.83358 7.6673,-5.209143 7.57719,-5.220898"
         clip-path="url(#p57a272078e)" />
      <path
         inkscape:connector-curvature="0"
         id="path314"
         style="fill:none;stroke:#010507;stroke-width:1.5;stroke-linecap:butt;stroke-linejoin:round;stroke-opacity:1"
         d="m 188.43403,156.98851 8.51226,-5.32821 8.33785,-9.18879 8.29945,-5.84296 8.23718,-1.17523 8.43465,65.29217 7.76849,24.03364 7.66225,-67.11308 7.88141,-45.66313 7.71314,-6.6117 7.59879,-4.04304 7.52147,-5.325188"
         clip-path="url(#p57a272078e)" />
      <path
         inkscape:connector-curvature="0"
         id="path316"
         style="fill:none;stroke:#010507;stroke-width:1.5;stroke-linecap:butt;stroke-linejoin:round;stroke-opacity:1"
         d="m 202.96375,160.249 8.45034,-5.12887 8.30559,-8.42764 8.24713,-3.88749 8.19698,26.10441 7.82553,55.05789 7.70227,-26.39496 8.17163,-75.30361 7.82543,-13.45604 7.59481,-0.84412 7.52733,-3.70565 7.46367,-5.322751"
         clip-path="url(#p57a272078e)" />
      <path
         inkscape:connector-curvature="0"
         id="path318"
         style="fill:none;stroke:#010507;stroke-width:1.5;stroke-linecap:butt;stroke-linejoin:round;stroke-opacity:1"
         d="m 217.59965,163.638 8.37845,-5.69589 8.26915,-6.11571 8.16613,-4.55274 7.97888,13.27588 7.80529,5.4108 8.09733,-35.49353 8.04191,-24.12601 7.49655,7.57162 7.52201,-1.91976 7.48192,-4.83499 7.40352,-5.28248"
         clip-path="url(#p57a272078e)" />
      <path
         inkscape:connector-curvature="0"
         id="path320"
         style="fill:none;stroke:#010507;stroke-width:1.5;stroke-linecap:butt;stroke-linejoin:round;stroke-opacity:1"
         d="m 232.34042,167.06859 8.31237,-6.01652 8.20688,-5.87214 8.10308,-5.79084 7.99076,-4.75435 7.91536,-6.86031 7.85304,-8.31491 7.70578,-4.97311 7.57898,-3.74862 7.5177,-5.21297 7.43286,-5.38266 7.34373,-5.31491"
         clip-path="url(#p57a272078e)" />
      <path
         inkscape:connector-curvature="0"
         id="path322"
         style="fill:none;stroke:#010507;stroke-width:1.5;stroke-linecap:butt;stroke-linejoin:round;stroke-opacity:1"
         d="m 247.187,170.47946 8.24734,-6.0771 8.14159,-5.89501 8.03934,-5.90511 7.93966,-5.89944 7.88022,-7.68846 7.77309,-6.66536 7.60799,-3.85405 7.52307,-4.44629 7.46064,-5.44654 7.37285,-5.45117 7.28303,-5.35062"
         clip-path="url(#p57a272078e)" />
      <path
         inkscape:connector-curvature="0"
         id="path324"
         style="fill:none;stroke:#010507;stroke-width:1.5;stroke-linecap:butt;stroke-linejoin:round;stroke-opacity:1"
         d="m 262.14105,173.9115 8.18088,-6.09973 8.077,-6.04936 7.97409,-5.93718 7.8679,-5.6266 7.76005,-5.27773 7.68186,-5.91518 7.60175,-6.23655 7.49312,-5.65452 7.39808,-5.48763 7.30907,-5.44292 7.2215,-5.39066"
         clip-path="url(#p57a272078e)" />
      <path
         inkscape:connector-curvature="0"
         id="path326"
         style="fill:none;stroke:#010507;stroke-width:1.5;stroke-linecap:butt;stroke-linejoin:round;stroke-opacity:1"
         d="m 277.20374,177.36989 8.11353,-6.15125 8.00968,-6.07113 7.90796,-5.99798 7.80955,-5.96999 7.71119,-5.87561 7.61099,-5.69067 7.51737,-5.6514 7.42805,-5.66341 7.33615,-5.57012 7.24653,-5.49461 7.15879,-5.42676"
         clip-path="url(#p57a272078e)" />
    </g>
    <path
       clip-path="url(#p5fb191227f)"
       d="m 73.832727,229.34228 29.514053,0.19717 29.51405,5.7227 29.51405,-1.86916 29.51405,62.09501 29.51404,-66.82749 29.51405,-175.09251 29.51405,31.353525 29.51405,123.158085 29.51405,21.48707 29.51405,0.52271 29.51405,-0.62178"
       style="fill:none;stroke:#000000;stroke-width:3.68489671;stroke-linecap:square;stroke-linejoin:round;stroke-miterlimit:4;stroke-dasharray:none;stroke-opacity:1"
       id="path187"
       inkscape:connector-curvature="0"
       transform="matrix(0.01230295,-0.37952192,0.41487453,-0.01383963,276.41662,246.03863)" />
    <flowRoot
       transform="matrix(1.3764555,0,0,1.3764555,-156.27497,-92.586705)"
       style="font-style:normal;font-variant:normal;font-weight:normal;font-stretch:normal;font-size:16px;line-height:125%;font-family:Arial;-inkscape-font-specification:Arial;letter-spacing:0px;word-spacing:0px;fill:#000000;fill-opacity:1;stroke:none;stroke-width:1px;stroke-linecap:butt;stroke-linejoin:miter;stroke-opacity:1"
       id="flowRoot5569"
       xml:space="preserve"><flowRegion
         style="stroke-linecap:butt;stroke-linejoin:round"
         id="flowRegion5571"><rect
           style="stroke-linecap:butt;stroke-linejoin:round"
           y="31.007326"
           x="165.54216"
           height="67.862"
           width="326.97147"
           id="rect5573" /></flowRegion><flowPara
         style="font-style:normal;font-variant:normal;font-weight:normal;font-stretch:normal;font-size:64px;font-family:Ubuntu;-inkscape-font-specification:Ubuntu;stroke-linecap:butt;stroke-linejoin:round"
         id="flowPara5575">PyNUFFT</flowPara></flowRoot>    <path
       clip-path="url(#pf1e85aacb6)"
       d="m 73.832727,67.167542 29.514053,1.748521 29.51405,-5.716359 29.51405,4.296918 29.51405,76.022708 29.51404,151.96867 29.51405,-59.49845 29.51405,-167.552259 29.51405,-14.869291 29.51405,9.934736 29.51405,4.099347 29.51405,-0.264728"
       style="fill:none;stroke:#000000;stroke-width:5.7394166;stroke-linecap:square;stroke-linejoin:round;stroke-miterlimit:4;stroke-dasharray:none;stroke-opacity:1"
       id="path193"
       inkscape:connector-curvature="0"
       transform="matrix(0.25173313,0.05194,-0.01438191,-0.27430294,354.85311,231.17085)" />
    <path
       inkscape:connector-curvature="0"
       id="path5668"
       d="m 97.621696,121.98479 8.125124,126.36804"
       style="fill:none;fill-rule:evenodd;stroke:#000000;stroke-width:1.5;stroke-linecap:butt;stroke-linejoin:miter;stroke-miterlimit:4;stroke-dasharray:none;stroke-opacity:1" />
    <path
       inkscape:connector-curvature="0"
       id="path5670"
       d="M 97.621696,121.98479 41.909023,93.691576"
       style="fill:none;fill-rule:evenodd;stroke:#000000;stroke-width:0.75px;stroke-linecap:butt;stroke-linejoin:miter;stroke-opacity:1" />
    <path
       inkscape:connector-curvature="0"
       id="path5672"
       d="M 105.74682,248.35283 54.227903,285.28409"
       style="fill:none;fill-rule:evenodd;stroke:#000000;stroke-width:0.75px;stroke-linecap:butt;stroke-linejoin:miter;stroke-opacity:1" />
    <path
       inkscape:connector-curvature="0"
       id="path5674"
       d="m 280.73577,293.36075 38.80109,60.16195"
       style="fill:none;fill-rule:evenodd;stroke:#000000;stroke-width:0.75px;stroke-linecap:butt;stroke-linejoin:miter;stroke-opacity:1" />
    <path
       inkscape:connector-curvature="0"
       id="path5676"
       d="m 372.47325,216.58147 81.72387,16.81598"
       style="fill:none;fill-rule:evenodd;stroke:#000000;stroke-width:0.75px;stroke-linecap:butt;stroke-linejoin:miter;stroke-opacity:1" />
    <path
       inkscape:connector-curvature="0"
       id="path5678"
       d="M 376.51946,91.628229 469.29891,47.666557"
       style="fill:none;fill-rule:evenodd;stroke:#000000;stroke-width:0.75px;stroke-linecap:butt;stroke-linejoin:miter;stroke-opacity:1" />
    <path
       inkscape:connector-curvature="0"
       id="path5680"
       d="M 203.5896,55.751707 202.57194,-6.7275103"
       style="fill:none;fill-rule:evenodd;stroke:#000000;stroke-width:0.75px;stroke-linecap:butt;stroke-linejoin:miter;stroke-opacity:1" />
    <path
       sodipodi:nodetypes="ccc"
       inkscape:connector-curvature="0"
       id="path5682"
       d="m 97.621696,121.98479 183.748894,32.21778 -0.63482,139.15818"
       style="fill:none;fill-rule:evenodd;stroke:#000000;stroke-width:0.75px;stroke-linecap:butt;stroke-linejoin:miter;stroke-opacity:1" />
    <path
       inkscape:connector-curvature="0"
       id="path5684"
       d="M 281.37059,154.20257 379.51383,91.628221"
       style="fill:none;fill-rule:evenodd;stroke:#000000;stroke-width:0.75px;stroke-linecap:butt;stroke-linejoin:miter;stroke-opacity:1" />
  </g>
</svg>
